<svg width="106" height="40" viewBox="0 0 106 40" fill="none" xmlns="http://www.w3.org/2000/svg">
  <g transform="matrix(1,0,0,1,-0.6060606060606233,-0.4617316766635611)"><svg viewBox="0 0 396 93" data-background-color="#ffffff" preserveAspectRatio="xMidYMid meet" width="106" height="40" xmlns="http://www.w3.org/2000/svg" xmlns:xlink="http://www.w3.org/1999/xlink"><g id="tight-bounds" transform="matrix(1,0,0,1,0.2400000000000091,0.1836836172127505)"><svg viewBox="0 0 395.52 92.63279085859459" height="92.63279085859459" width="395.52"><g><svg viewBox="0 0 544.953588269735 127.63089545365854" height="92.63279085859459" width="395.52"><g transform="matrix(1,0,0,1,0,17.639291629268293)"><svg viewBox="0 0 395.52 92.35231219512195" height="92.35231219512195" width="395.52"><g id="textblocktransform"><svg viewBox="0 0 395.52 92.35231219512195" height="92.35231219512195" width="395.52" id="textblock"><g><svg viewBox="0 0 395.52 92.35231219512195" height="92.35231219512195" width="395.52"><g transform="matrix(1,0,0,1,0,0)"><svg width="395.52" viewBox="3 -35.400001525878906 153.74000549316406 35.900001525878906" height="92.35231219512195" data-palette-color="#4b91f1"><g class="undefined-text-0" data-fill-palette-color="primary" id="text-0"><path d="M13.6 0L4 0 4-27.35 3-32.35 4-35.35 12.05-35.35 22.15-21.75 24.55-17.6 25.05-17.6 25.05-35.35 34.5-35.35 34.5-32.35 34-27.35 34 0 26.15 0 13.6-17.6 13.1-17.6 13.1-14.6 13.6 0ZM55.95 0.5L55.95 0.5Q48.25 0.5 44.37-3.03 40.5-6.55 40.5-14.35L40.5-14.35 40.5-27.35 40.55-32.4 40.5-35.4 49.6-35.4 49.6-15.35Q49.6-11.85 51-9.68 52.4-7.5 55.95-7.5L55.95-7.5Q59.5-7.5 60.97-9.53 62.45-11.55 62.45-15.35L62.45-15.35 62.45-35.4 71.4-35.4 71.4-14.35Q71.4-6.7 67.62-3.1 63.85 0.5 55.95 0.5ZM105.8 0L76.95 0 75.4-3 93.5-27.45 76.95-27.45 76.95-35.4 105.7-35.4 105.7-29.5 90.15-7.95 91.7-7.95 105.8-8.95 105.8 0ZM119.84 0L110.79 0 110.79-27.4 110.29-32.4 110.79-35.4 119.84-35.4 119.84 0ZM153.79 0L126.84 0 125.84-3 126.84-8 126.84-35.4 151.59-35.4 154.09-33.9 150.79-26.9 146.29-27.4 135.84-27.4 135.84-21.9 149.29-21.9 149.29-14.15 143.39-14.15 135.84-14.65 135.84-8 150.79-8 156.74-3.2 153.79 0Z" fill="#4b91f1" data-fill-palette-color="primary"></path></g></svg></g></svg></g></svg></g></svg></g><g transform="matrix(1,0,0,1,417.3221644537756,0)"><svg viewBox="0 0 127.63142381595932 127.63089545365854" height="127.63089545365854" width="127.63142381595932"><g><svg xmlns="http://www.w3.org/2000/svg" xmlns:xlink="http://www.w3.org/1999/xlink" version="1.0" x="0" y="0" viewBox="4.667734146118164 4.6859588623046875 90.3050308227539 90.30465698242188" enable-background="new 0 0 100 100" xml:space="preserve" height="127.63089545365854" width="127.63142381595932" class="icon-icon-0" data-fill-palette-color="accent" id="icon-0"><path d="M17.504 35.743c-1.334 8.611 0.522 17.134 5.093 23.382 3.514 4.801 8.413 7.905 13.796 8.739 5.677 0.88 11.253-0.429 15.703-3.685 1.248-0.912 2.36-1.946 3.326-3.076-2.222 0.978-4.814 1.267-7.626 0.831-11.717-1.816-19.673-13.464-17.735-25.964 0.934-6.03 4.384-11.497 9.713-15.397 6.768-4.952 15.953-6.97 25.201-5.537 7.474 1.158 17.67 5.964 25.56 15.213 0 0-22.835-39.421-56.115-20.356C23.689 16.04 18.653 28.323 17.504 35.743z" fill="#4b91f1" data-fill-palette-color="accent"></path><path d="M82.544 65.256c1.659-8.555 0.125-17.141-4.207-23.557-3.331-4.931-8.109-8.217-13.457-9.253-5.639-1.094-11.261 0.004-15.83 3.091-1.282 0.863-2.431 1.854-3.44 2.947 2.257-0.894 4.859-1.084 7.652-0.543 11.64 2.257 19.151 14.196 16.744 26.616-1.161 5.989-4.815 11.324-10.288 15.019-6.949 4.692-16.205 6.364-25.393 4.582C26.902 82.719 16.894 77.532 9.358 67.992c0 0 21.331 40.255 55.307 22.457C75.621 84.712 81.115 72.628 82.544 65.256z" fill="#4b91f1" data-fill-palette-color="accent"></path><path d="M35.726 82.88c8.611 1.334 17.133-0.522 23.381-5.094 4.801-3.514 7.905-8.413 8.74-13.796 0.879-5.676-0.429-11.253-3.686-15.702-0.912-1.248-1.946-2.36-3.076-3.327 0.979 2.222 1.267 4.815 0.831 7.626-1.816 11.717-13.463 19.673-25.965 17.736-6.029-0.934-11.497-4.385-15.395-9.713-4.952-6.768-6.971-15.954-5.538-25.202 1.158-7.474 5.964-17.67 15.213-25.559 0 0-39.421 22.835-20.356 56.115C16.022 76.695 28.305 81.73 35.726 82.88z" fill="#4b91f1" data-fill-palette-color="accent"></path><path d="M90.432 35.718c-5.738-10.955-17.822-16.45-25.194-17.879-8.554-1.659-17.141-0.125-23.557 4.208-4.931 3.331-8.217 8.108-9.254 13.456-1.094 5.64 0.004 11.261 3.092 15.83 0.863 1.282 1.854 2.431 2.946 3.441-0.894-2.257-1.084-4.859-0.542-7.652 2.257-11.64 14.196-19.151 26.615-16.744 5.99 1.161 11.324 4.816 15.019 10.289 4.693 6.949 6.363 16.204 4.583 25.392-1.44 7.423-6.626 17.431-16.167 24.966C67.973 91.025 108.228 69.694 90.432 35.718z" fill="#4b91f1" data-fill-palette-color="accent"></path></svg></g></svg></g></svg></g><defs></defs></svg><rect width="395.52" height="92.63279085859459" fill="none" stroke="none" visibility="hidden"></rect></g></svg></g>
</svg>
